# xmcd
#
# Track frame offsets: 
#        150
#        12198
#        21704
#        30378
#        39589
#        49864
#        70892
#        84524
#        96356
#        106176
#        116599
#        125487
#        141056
#        151827
#        168812
#        178373
#        190799
#        211064
#
# Disc length: 3082 seconds
#
# Revision: 0
# Processed by: cddbd v1.5.2PL0 Copyright (c) Steve Scherf et al.
# Submitted via: ExactAudioCopy v1.0b3
#
DISCID=ee0c0812
DTITLE=八代亜紀 - 八代亜紀 イン アメリカ Disc 1 TECE-3171-2
DYEAR=1900
DGENRE=Blues
TTITLE0=イントロダクション (メンバー紹介) 
TTITLE1=雨の慕情
TTITLE2=MC 
TTITLE3=愛の執念
TTITLE4=故郷へ…… 
TTITLE5=MC 
TTITLE6=石狩挽歌 
TTITLE7=ワン・レイニー・ナイト・イン・トーキョー
TTITLE8=女ひとり
TTITLE9=大阪しぐれ
TTITLE10=長崎ブルース
TTITLE11=MC 
TTITLE12=五木の子守唄
TTITLE13=WOMAN IN LOVE 
TTITLE14=MC 
TTITLE15=花水仙
TTITLE16=女ごころ~おんなの涙~しのび恋 <メドレー> 
TTITLE17=なみだ恋
EXTD=
EXTT0=
EXTT1=
EXTT2=
EXTT3=
EXTT4=
EXTT5=
EXTT6=
EXTT7=
EXTT8=
EXTT9=
EXTT10=
EXTT11=
EXTT12=
EXTT13=
EXTT14=
EXTT15=
EXTT16=
EXTT17=
PLAYORDER=
